<svg width="170" height="70" viewBox="0 0 170 70" fill="none" xmlns="http://www.w3.org/2000/svg">
<circle cx="35" cy="35" r="35" fill="#D9D9D9"/>
<path d="M20.388 33.14H32.484V37.82H20.388V33.14ZM20.82 47H14.988V21.8H34.032V26.48H20.82V47ZM46.2602 47.432C44.2442 47.432 42.3122 47.168 40.4642 46.64C38.6162 46.088 37.1282 45.38 36.0002 44.516L37.9802 40.124C39.0602 40.892 40.3322 41.528 41.7962 42.032C43.2842 42.512 44.7842 42.752 46.2962 42.752C47.4482 42.752 48.3722 42.644 49.0682 42.428C49.7882 42.188 50.3162 41.864 50.6522 41.456C50.9882 41.048 51.1562 40.58 51.1562 40.052C51.1562 39.38 50.8922 38.852 50.3642 38.468C49.8362 38.06 49.1402 37.736 48.2762 37.496C47.4122 37.232 46.4522 36.992 45.3962 36.776C44.3642 36.536 43.3202 36.248 42.2642 35.912C41.2322 35.576 40.2842 35.144 39.4202 34.616C38.5562 34.088 37.8482 33.392 37.2962 32.528C36.7682 31.664 36.5042 30.56 36.5042 29.216C36.5042 27.776 36.8882 26.468 37.6562 25.292C38.4482 24.092 39.6242 23.144 41.1842 22.448C42.7682 21.728 44.7482 21.368 47.1242 21.368C48.7082 21.368 50.2682 21.56 51.8042 21.944C53.3402 22.304 54.6962 22.856 55.8722 23.6L54.0722 28.028C52.8962 27.356 51.7202 26.864 50.5442 26.552C49.3682 26.216 48.2162 26.048 47.0882 26.048C45.9602 26.048 45.0362 26.18 44.3162 26.444C43.5962 26.708 43.0802 27.056 42.7682 27.488C42.4562 27.896 42.3002 28.376 42.3002 28.928C42.3002 29.576 42.5642 30.104 43.0922 30.512C43.6202 30.896 44.3162 31.208 45.1802 31.448C46.0442 31.688 46.9922 31.928 48.0242 32.168C49.0802 32.408 50.1242 32.684 51.1562 32.996C52.2122 33.308 53.1722 33.728 54.0362 34.256C54.9002 34.784 55.5962 35.48 56.1242 36.344C56.6762 37.208 56.9522 38.3 56.9522 39.62C56.9522 41.036 56.5562 42.332 55.7642 43.508C54.9722 44.684 53.7842 45.632 52.2002 46.352C50.6402 47.072 48.6602 47.432 46.2602 47.432Z" fill="#C5D3A7"/>
<path d="M79.85 34.93H90.68V37.51H79.85V34.93ZM80.15 46H77.15V25H91.97V27.61H80.15V46ZM100.04 46.18C98.72 46.18 97.46 46 96.26 45.64C95.08 45.28 94.15 44.84 93.47 44.32L94.67 42.04C95.35 42.5 96.19 42.89 97.19 43.21C98.19 43.53 99.21 43.69 100.25 43.69C101.59 43.69 102.55 43.5 103.13 43.12C103.73 42.74 104.03 42.21 104.03 41.53C104.03 41.03 103.85 40.64 103.49 40.36C103.13 40.08 102.65 39.87 102.05 39.73C101.47 39.59 100.82 39.47 100.1 39.37C99.38 39.25 98.66 39.11 97.94 38.95C97.22 38.77 96.56 38.53 95.96 38.23C95.36 37.91 94.88 37.48 94.52 36.94C94.16 36.38 93.98 35.64 93.98 34.72C93.98 33.76 94.25 32.92 94.79 32.2C95.33 31.48 96.09 30.93 97.07 30.55C98.07 30.15 99.25 29.95 100.61 29.95C101.65 29.95 102.7 30.08 103.76 30.34C104.84 30.58 105.72 30.93 106.4 31.39L105.17 33.67C104.45 33.19 103.7 32.86 102.92 32.68C102.14 32.5 101.36 32.41 100.58 32.41C99.32 32.41 98.38 32.62 97.76 33.04C97.14 33.44 96.83 33.96 96.83 34.6C96.83 35.14 97.01 35.56 97.37 35.86C97.75 36.14 98.23 36.36 98.81 36.52C99.41 36.68 100.07 36.82 100.79 36.94C101.51 37.04 102.23 37.18 102.95 37.36C103.67 37.52 104.32 37.75 104.9 38.05C105.5 38.35 105.98 38.77 106.34 39.31C106.72 39.85 106.91 40.57 106.91 41.47C106.91 42.43 106.63 43.26 106.07 43.96C105.51 44.66 104.72 45.21 103.7 45.61C102.68 45.99 101.46 46.18 100.04 46.18ZM115.969 46.18C114.369 46.18 113.129 45.75 112.249 44.89C111.369 44.03 110.929 42.8 110.929 41.2V26.62H113.809V41.08C113.809 41.94 114.019 42.6 114.439 43.06C114.879 43.52 115.499 43.75 116.299 43.75C117.199 43.75 117.949 43.5 118.549 43L119.449 45.07C119.009 45.45 118.479 45.73 117.859 45.91C117.259 46.09 116.629 46.18 115.969 46.18ZM108.229 32.47V30.1H118.369V32.47H108.229ZM129.214 46.18C127.614 46.18 126.194 45.83 124.954 45.13C123.714 44.43 122.734 43.47 122.014 42.25C121.294 41.01 120.934 39.61 120.934 38.05C120.934 36.47 121.294 35.07 122.014 33.85C122.734 32.63 123.714 31.68 124.954 31C126.194 30.3 127.614 29.95 129.214 29.95C130.794 29.95 132.204 30.3 133.444 31C134.704 31.68 135.684 32.63 136.384 33.85C137.104 35.05 137.464 36.45 137.464 38.05C137.464 39.63 137.104 41.03 136.384 42.25C135.684 43.47 134.704 44.43 133.444 45.13C132.204 45.83 130.794 46.18 129.214 46.18ZM129.214 43.66C130.234 43.66 131.144 43.43 131.944 42.97C132.764 42.51 133.404 41.86 133.864 41.02C134.324 40.16 134.554 39.17 134.554 38.05C134.554 36.91 134.324 35.93 133.864 35.11C133.404 34.27 132.764 33.62 131.944 33.16C131.144 32.7 130.234 32.47 129.214 32.47C128.194 32.47 127.284 32.7 126.484 33.16C125.684 33.62 125.044 34.27 124.564 35.11C124.084 35.93 123.844 36.91 123.844 38.05C123.844 39.17 124.084 40.16 124.564 41.02C125.044 41.86 125.684 42.51 126.484 42.97C127.284 43.43 128.194 43.66 129.214 43.66ZM141.447 46V30.1H144.207V34.42L143.937 33.34C144.377 32.24 145.117 31.4 146.157 30.82C147.197 30.24 148.477 29.95 149.997 29.95V32.74C149.877 32.72 149.757 32.71 149.637 32.71C149.537 32.71 149.437 32.71 149.337 32.71C147.797 32.71 146.577 33.17 145.677 34.09C144.777 35.01 144.327 36.34 144.327 38.08V46H141.447ZM160.48 46.18C158.78 46.18 157.28 45.83 155.98 45.13C154.7 44.43 153.7 43.47 152.98 42.25C152.28 41.03 151.93 39.63 151.93 38.05C151.93 36.47 152.27 35.07 152.95 33.85C153.65 32.63 154.6 31.68 155.8 31C157.02 30.3 158.39 29.95 159.91 29.95C161.45 29.95 162.81 30.29 163.99 30.97C165.17 31.65 166.09 32.61 166.75 33.85C167.43 35.07 167.77 36.5 167.77 38.14C167.77 38.26 167.76 38.4 167.74 38.56C167.74 38.72 167.73 38.87 167.71 39.01H154.18V36.94H166.21L165.04 37.66C165.06 36.64 164.85 35.73 164.41 34.93C163.97 34.13 163.36 33.51 162.58 33.07C161.82 32.61 160.93 32.38 159.91 32.38C158.91 32.38 158.02 32.61 157.24 33.07C156.46 33.51 155.85 34.14 155.41 34.96C154.97 35.76 154.75 36.68 154.75 37.72V38.2C154.75 39.26 154.99 40.21 155.47 41.05C155.97 41.87 156.66 42.51 157.54 42.97C158.42 43.43 159.43 43.66 160.57 43.66C161.51 43.66 162.36 43.5 163.12 43.18C163.9 42.86 164.58 42.38 165.16 41.74L166.75 43.6C166.03 44.44 165.13 45.08 164.05 45.52C162.99 45.96 161.8 46.18 160.48 46.18Z" fill="#DFDBDB"/>
</svg>
